<svg width="130" height="40" viewBox="0 0 130 40" fill="none" xmlns="http://www.w3.org/2000/svg">
<path fill-rule="evenodd" clip-rule="evenodd" d="M29.269 10.316C28.224 9.936 27.035 10.195 26.277 10.969L21 16L23 18C23.631 18.645 24.04 19.128 24 20L26 18V27C26 28.404 26.78 29.997 28.283 29.997C29.785 29.997 31.003 28.858 31.003 27.453V12.687C31.003 11.638 30.315 10.696 29.269 10.316ZM13.723 10.827C12.965 10.052 11.777 9.794 10.731 10.174C9.685 10.554 8.997 11.496 8.997 12.544V27.452C8.997 28.856 10.215 29.996 11.717 29.996C13.219 29.997 14 28.404 14 27V19L18 23C19.015 24.036 20.892 23.949 22 23C23.108 22.051 23.015 20.035 22 19L13.723 10.827ZM0 40H40V0H0V40ZM5 5H35V35H5V5ZM56.991 12.044C55.889 12.044 54.995 12.942 54.995 14.05V15.061C54.544 14.355 53.083 13.504 52.271 13.081C51.458 12.659 50.562 12.448 49.582 12.448C48.328 12.448 47.202 12.782 46.203 13.449C45.204 14.116 44.42 15.048 43.852 16.245C43.284 17.442 43 18.816 43 20.366C43 21.897 43.279 23.246 43.838 24.413C44.396 25.581 45.175 26.479 46.174 27.107C47.173 27.735 48.277 28.133 49.55 28.133C50.529 28.133 51.463 27.847 52.285 27.445C53.108 27.043 54.188 26.577 54.995 26.122V26.123C54.995 27.233 55.891 28.133 56.995 28.133C58.1 28.133 58.996 27.232 58.995 26.121L58.986 14.048C58.986 12.941 58.092 12.044 56.991 12.044ZM53.402 23.103C52.892 23.751 51.934 24.111 50.993 24.111C50.033 24.111 48.501 23.743 47.991 23.106C47.481 22.468 46.991 21.286 46.991 20.089C46.991 18.853 47.463 17.749 47.991 17.072C48.52 16.395 49.668 16.249 50.589 16.249C51.529 16.249 52.891 16.809 53.401 17.466C53.91 18.124 54.165 19.07 54.165 20.306C54.166 21.523 53.911 22.456 53.402 23.103ZM73.629 12.044C72.649 12.044 71.777 12.672 71.464 13.606L68.816 21.485L65.57 13.48C65.218 12.611 64.377 12.043 63.444 12.043C61.802 12.043 60.691 13.725 61.327 15.245L66.155 26.782L65.791 27.606C65.455 28.371 64.96 28.97 64.307 29.401C63.941 29.643 63.353 30.018 62.678 30.349C61.725 30.817 61.201 31.866 61.448 32.902C61.771 34.262 63.24 34.991 64.516 34.435C65.577 33.972 66.572 33.362 67.346 32.771C68.721 31.72 69.721 30.362 70.58 28.341L75.754 15.182C76.347 13.677 75.242 12.044 73.629 12.044ZM89.021 13.404C87.854 12.767 86.486 12.448 84.918 12.448C83.331 12.448 81.949 12.762 80.773 13.39C79.597 14.018 78.691 14.921 78.057 16.098C77.422 17.275 77.105 18.66 77.105 20.249C77.105 21.838 77.422 23.222 78.057 24.399C78.691 25.576 79.597 26.479 80.773 27.107C81.949 27.735 83.331 28.049 84.918 28.049C86.486 28.049 87.854 27.73 89.021 27.092C90.188 26.455 91.088 25.551 91.723 24.384C92.358 23.216 92.675 21.837 92.675 20.248C92.675 18.658 92.357 17.28 91.723 16.112C91.089 14.945 90.188 14.042 89.021 13.404ZM84.919 24.074C83.985 24.074 83.285 23.765 82.819 23.147C82.352 22.528 82.119 21.562 82.119 20.247C82.119 18.951 82.352 17.995 82.819 17.377C83.285 16.759 83.986 16.449 84.919 16.449C85.833 16.449 86.52 16.758 86.977 17.377C87.434 17.995 87.663 18.951 87.663 20.247C87.663 22.799 86.748 24.074 84.919 24.074ZM102.814 18.747L100.434 18.188C99.911 18.051 99.556 17.918 99.37 17.79C99.183 17.663 99.09 17.491 99.09 17.275C99.09 16.922 99.249 16.652 99.566 16.465C99.883 16.279 100.322 16.186 100.882 16.186C101.572 16.186 102.31 16.324 103.094 16.598C103.3 16.671 103.506 16.751 103.709 16.839C104.668 17.256 105.779 16.754 106.152 15.773C106.51 14.833 106.066 13.781 105.152 13.371C104.767 13.199 104.37 13.047 103.962 12.918C102.972 12.604 101.964 12.447 100.938 12.447C99.687 12.447 98.581 12.658 97.619 13.08C96.657 13.503 95.906 14.086 95.364 14.832C94.822 15.578 94.552 16.432 94.552 17.393C94.552 18.59 94.874 19.527 95.518 20.204C96.162 20.881 97.212 21.377 98.669 21.691L100.966 22.25C101.619 22.388 102.063 22.54 102.296 22.707C102.529 22.874 102.646 23.095 102.646 23.369C102.646 23.683 102.487 23.929 102.17 24.105C101.852 24.281 101.404 24.37 100.826 24.37C99.892 24.37 98.94 24.218 97.969 23.914C97.697 23.829 97.433 23.734 97.176 23.629C96.152 23.211 94.989 23.687 94.617 24.733C94.273 25.699 94.747 26.76 95.687 27.157C97.093 27.752 98.797 28.049 100.797 28.049C102.757 28.049 104.293 27.627 105.404 26.783C106.515 25.939 107.071 24.781 107.071 23.309C107.071 22.073 106.739 21.097 106.077 20.38C105.414 19.664 104.326 19.12 102.814 18.747ZM112.51 12.038C111.127 12.038 110.006 13.166 110.007 14.556L110.019 25.621C110.02 27.008 111.14 28.132 112.52 28.132C113.902 28.132 115.023 27.005 115.021 25.616L115.012 14.55C115.012 13.162 113.892 12.038 112.51 12.038ZM129.368 20.381C128.705 19.664 127.618 19.12 126.105 18.747L123.725 18.188C123.202 18.051 122.847 17.918 122.661 17.79C122.474 17.663 122.381 17.491 122.381 17.275C122.381 16.922 122.539 16.652 122.857 16.465C123.174 16.279 123.613 16.186 124.173 16.186C124.863 16.186 125.601 16.324 126.385 16.598C126.591 16.671 126.797 16.751 127 16.839C127.959 17.257 129.07 16.754 129.443 15.773C129.801 14.833 129.357 13.781 128.443 13.371C128.058 13.199 127.661 13.047 127.253 12.918C126.263 12.604 125.255 12.447 124.228 12.447C122.977 12.447 121.871 12.658 120.91 13.08C119.948 13.503 119.197 14.086 118.656 14.832C118.114 15.578 117.844 16.432 117.844 17.393C117.844 18.59 118.166 19.527 118.81 20.204C119.454 20.881 120.504 21.377 121.961 21.691L124.258 22.25C124.911 22.388 125.355 22.54 125.588 22.707C125.821 22.874 125.938 23.095 125.938 23.369C125.938 23.683 125.779 23.929 125.462 24.105C125.144 24.281 124.696 24.37 124.118 24.37C123.184 24.37 122.232 24.218 121.261 23.914C120.989 23.829 120.725 23.734 120.468 23.629C119.444 23.211 118.281 23.687 117.909 24.733C117.566 25.699 118.039 26.76 118.979 27.157C120.385 27.752 122.089 28.049 124.089 28.049C126.049 28.049 127.585 27.627 128.696 26.783C129.807 25.939 129.812 24.948 130 23.608C130 22.372 129.718 20.9 129.368 20.381ZM112.523 5.005C111.142 5.005 110.022 6.13 110.022 7.519C110.022 8.907 111.142 10.033 112.523 10.033C113.904 10.033 115.024 8.907 115.024 7.519C115.024 6.13 113.904 5.005 112.523 5.005Z" fill="#5A00F0"/>
</svg>
